<svg width="30" height="30" viewBox="0 0 30 30" fill="none" xmlns="http://www.w3.org/2000/svg">
<path d="M27.0519 10.1238C26.9951 8.8473 26.7869 7.96979 26.4886 7.20934C26.1809 6.40218 25.7076 5.67955 25.0875 5.07879C24.4815 4.4687 23.7477 3.99461 22.943 3.69435C22.1716 3.39869 21.2911 3.1922 20.0036 3.13597C18.7064 3.07487 18.2947 3.06079 15.0048 3.06079C11.7149 3.06079 11.3031 3.07487 10.0108 3.13119C8.72332 3.1875 7.83818 3.39409 7.07138 3.68956C6.25701 3.99461 5.52813 4.46391 4.92218 5.07879C4.30681 5.6795 3.82885 6.40692 3.52576 7.20474C3.22754 7.96979 3.01931 8.8426 2.96255 10.119C2.90097 11.405 2.88672 11.8133 2.88672 15.0749C2.88672 18.3366 2.90097 18.7449 2.95772 20.0261C3.01453 21.3026 3.2229 22.1801 3.52117 22.9406C3.82885 23.7477 4.30681 24.4703 4.92218 25.0711C5.52813 25.6812 6.26184 26.1553 7.06656 26.4555C7.83814 26.7512 8.71849 26.9577 10.0062 27.0139C11.2983 27.0704 11.7103 27.0843 15.0002 27.0843C18.2901 27.0843 18.7018 27.0704 19.9942 27.0139C21.2817 26.9577 22.1668 26.7513 22.9336 26.4555C23.739 26.1468 24.4704 25.6747 25.081 25.0694C25.6915 24.4641 26.1678 23.739 26.4792 22.9406C26.7773 22.1755 26.9857 21.3025 27.0424 20.0261C27.0992 18.7449 27.1134 18.3366 27.1134 15.0749C27.1134 11.8133 27.1086 11.405 27.0519 10.1238ZM24.8698 19.9322C24.8176 21.1055 24.6189 21.739 24.4532 22.1614C24.046 23.208 23.2082 24.0386 22.1526 24.4423C21.7265 24.6066 21.0829 24.8036 19.9041 24.8551C18.626 24.9116 18.2427 24.9255 15.0096 24.9255C11.7765 24.9255 11.3884 24.9116 10.1149 24.8551C8.93151 24.8036 8.29247 24.6066 7.86644 24.4423C7.34115 24.2498 6.86301 23.9448 6.47485 23.5459C6.07249 23.1563 5.76481 22.687 5.57064 22.1662C5.40496 21.7438 5.20619 21.1055 5.15427 19.937C5.09727 18.6699 5.08326 18.2897 5.08326 15.0843C5.08326 11.8789 5.09727 11.4941 5.15427 10.2318C5.20619 9.05853 5.40496 8.42497 5.57064 8.0026C5.76481 7.48158 6.07249 7.00763 6.47968 6.62271C6.87238 6.2238 7.34574 5.91875 7.87127 5.72648C8.2973 5.56222 8.94116 5.36512 10.1197 5.31345C11.3978 5.25713 11.7813 5.24305 15.0142 5.24305C18.2522 5.24305 18.6354 5.25713 19.9089 5.31345C21.0923 5.36516 21.7314 5.56218 22.1574 5.72643C22.6827 5.91875 23.1609 6.2238 23.549 6.62271C23.9513 7.01227 24.259 7.48158 24.4532 8.0026C24.6189 8.42497 24.8176 9.06308 24.8698 10.2318C24.9266 11.4989 24.9408 11.8789 24.9408 15.0843C24.9408 18.2897 24.9266 18.6651 24.8698 19.9322Z" fill="white"/>
<path d="M15.0047 8.9037C11.5682 8.9037 8.78003 11.6678 8.78003 15.075C8.78003 18.4823 11.5682 21.2464 15.0047 21.2464C18.4414 21.2464 21.2295 18.4823 21.2295 15.075C21.2295 11.6678 18.4414 8.9037 15.0047 8.9037ZM15.0047 19.0782C12.7753 19.0782 10.9669 17.2855 10.9669 15.075C10.9669 12.8645 12.7753 11.0719 15.0047 11.0719C17.2343 11.0719 19.0425 12.8645 19.0425 15.075C19.0425 17.2855 17.2343 19.0782 15.0047 19.0782ZM22.9289 8.65966C22.9289 9.45532 22.2782 10.1004 21.4755 10.1004C20.673 10.1004 20.0223 9.45532 20.0223 8.65966C20.0223 7.86391 20.673 7.21899 21.4756 7.21899C22.2782 7.21899 22.9289 7.86386 22.9289 8.65966Z" fill="white"/>
</svg>
