<svg width="26" height="25" viewBox="0 0 26 25" fill="none" xmlns="http://www.w3.org/2000/svg">
<path d="M22.692 0.0612793H3.30801C1.97536 0.0612793 0.88501 1.14228 0.88501 2.4635V21.6813C0.88501 23.0025 1.97536 24.0835 3.30801 24.0835H22.692C24.0247 24.0835 25.115 23.0025 25.115 21.6813V2.4635C25.115 1.14228 24.0247 0.0612793 22.692 0.0612793ZM8.15401 20.4802H4.51951V9.67017H8.15401V20.4802ZM6.33676 7.62828C5.12526 7.62828 4.15606 6.66739 4.15606 5.46628C4.15606 4.26517 5.12526 3.30428 6.33676 3.30428C7.54826 3.30428 8.51746 4.26517 8.51746 5.46628C8.51746 6.66739 7.54826 7.62828 6.33676 7.62828ZM21.4805 20.4802H17.846V14.1143C17.846 13.1534 16.998 12.3126 16.0288 12.3126C15.0596 12.3126 14.2115 13.1534 14.2115 14.1143V20.4802H10.577V9.67017H14.2115V11.1115C14.8173 10.1506 16.1499 9.42994 17.2403 9.42994C19.5421 9.42994 21.4805 11.3517 21.4805 13.6338V20.4802Z" fill="white"/>
</svg>
